<mxfile host="app.diagrams.net" modified="2023-10-13T08:18:02.015Z" agent="Mozilla/5.0 (Windows NT 10.0; Win64; x64) AppleWebKit/537.36 (KHTML, like Gecko) Chrome/117.0.0.0 Safari/537.36" etag="tx-buoF1UAE-2dmtSQii" version="22.0.4" type="device">
  <diagram name="페이지-1" id="OqtJ-qH8N0Bb4kSTN5vA">
    <mxGraphModel dx="576" dy="529" grid="1" gridSize="10" guides="1" tooltips="1" connect="1" arrows="1" fold="1" page="1" pageScale="1" pageWidth="827" pageHeight="1169" math="0" shadow="0">
      <root>
        <mxCell id="0" />
        <mxCell id="1" parent="0" />
        <mxCell id="HgnNro6eSd3hQzvAm4vo-1" value="User" style="shape=umlActor;verticalLabelPosition=bottom;verticalAlign=top;html=1;outlineConnect=0;" parent="1" vertex="1">
          <mxGeometry x="160" y="645" width="30" height="60" as="geometry" />
        </mxCell>
        <mxCell id="HgnNro6eSd3hQzvAm4vo-2" value="Admin" style="shape=umlActor;verticalLabelPosition=bottom;verticalAlign=top;html=1;outlineConnect=0;" parent="1" vertex="1">
          <mxGeometry x="170" y="245" width="30" height="60" as="geometry" />
        </mxCell>
        <mxCell id="HgnNro6eSd3hQzvAm4vo-3" value="" style="group" parent="1" connectable="0" vertex="1">
          <mxGeometry x="835.5" y="552.5" width="104.5" height="55" as="geometry" />
        </mxCell>
        <mxCell id="HgnNro6eSd3hQzvAm4vo-4" value="" style="group" parent="HgnNro6eSd3hQzvAm4vo-3" connectable="0" vertex="1">
          <mxGeometry x="-25.5" y="10" width="130" height="45" as="geometry" />
        </mxCell>
        <mxCell id="HgnNro6eSd3hQzvAm4vo-5" value="" style="ellipse;whiteSpace=wrap;html=1;" parent="HgnNro6eSd3hQzvAm4vo-4" vertex="1">
          <mxGeometry width="130" height="45" as="geometry" />
        </mxCell>
        <mxCell id="HgnNro6eSd3hQzvAm4vo-6" value="지각자 이름 및 횟수" style="text;strokeColor=none;fillColor=none;html=1;fontSize=14;fontStyle=1;verticalAlign=middle;align=center;" parent="HgnNro6eSd3hQzvAm4vo-4" vertex="1">
          <mxGeometry x="14" y="7.5" width="102" height="30" as="geometry" />
        </mxCell>
        <mxCell id="HgnNro6eSd3hQzvAm4vo-7" value="" style="group" parent="1" connectable="0" vertex="1">
          <mxGeometry x="400" y="560" width="76" height="50" as="geometry" />
        </mxCell>
        <mxCell id="HgnNro6eSd3hQzvAm4vo-8" value="" style="ellipse;whiteSpace=wrap;html=1;" parent="HgnNro6eSd3hQzvAm4vo-7" vertex="1">
          <mxGeometry width="76" height="50" as="geometry" />
        </mxCell>
        <mxCell id="HgnNro6eSd3hQzvAm4vo-9" value="휴가 취소" style="text;strokeColor=none;fillColor=none;html=1;fontSize=14;fontStyle=1;verticalAlign=middle;align=center;" parent="HgnNro6eSd3hQzvAm4vo-7" vertex="1">
          <mxGeometry x="18" y="15" width="40" height="20" as="geometry" />
        </mxCell>
        <mxCell id="HgnNro6eSd3hQzvAm4vo-10" value="" style="group" parent="1" connectable="0" vertex="1">
          <mxGeometry x="430" y="850" width="76" height="50" as="geometry" />
        </mxCell>
        <mxCell id="HgnNro6eSd3hQzvAm4vo-11" value="" style="ellipse;whiteSpace=wrap;html=1;" parent="HgnNro6eSd3hQzvAm4vo-10" vertex="1">
          <mxGeometry width="76" height="50" as="geometry" />
        </mxCell>
        <mxCell id="HgnNro6eSd3hQzvAm4vo-12" value="연차 신청" style="text;strokeColor=none;fillColor=none;html=1;fontSize=14;fontStyle=1;verticalAlign=middle;align=center;" parent="HgnNro6eSd3hQzvAm4vo-10" vertex="1">
          <mxGeometry x="18" y="15" width="40" height="20" as="geometry" />
        </mxCell>
        <mxCell id="HgnNro6eSd3hQzvAm4vo-13" value="" style="group" parent="1" connectable="0" vertex="1">
          <mxGeometry x="510" y="560" width="76" height="50" as="geometry" />
        </mxCell>
        <mxCell id="HgnNro6eSd3hQzvAm4vo-14" value="" style="ellipse;whiteSpace=wrap;html=1;" parent="HgnNro6eSd3hQzvAm4vo-13" vertex="1">
          <mxGeometry width="76" height="50" as="geometry" />
        </mxCell>
        <mxCell id="HgnNro6eSd3hQzvAm4vo-15" value="연차 취소" style="text;strokeColor=none;fillColor=none;html=1;fontSize=14;fontStyle=1;verticalAlign=middle;align=center;" parent="HgnNro6eSd3hQzvAm4vo-13" vertex="1">
          <mxGeometry x="18" y="15" width="40" height="20" as="geometry" />
        </mxCell>
        <mxCell id="HgnNro6eSd3hQzvAm4vo-16" value="" style="group" parent="1" connectable="0" vertex="1">
          <mxGeometry x="620" y="840" width="130" height="45" as="geometry" />
        </mxCell>
        <mxCell id="HgnNro6eSd3hQzvAm4vo-17" value="" style="ellipse;whiteSpace=wrap;html=1;" parent="HgnNro6eSd3hQzvAm4vo-16" vertex="1">
          <mxGeometry width="130" height="45" as="geometry" />
        </mxCell>
        <mxCell id="HgnNro6eSd3hQzvAm4vo-18" value="내 출퇴근 기록" style="text;strokeColor=none;fillColor=none;html=1;fontSize=14;fontStyle=1;verticalAlign=middle;align=center;" parent="HgnNro6eSd3hQzvAm4vo-16" vertex="1">
          <mxGeometry x="14" y="7.5" width="102" height="30" as="geometry" />
        </mxCell>
        <mxCell id="HgnNro6eSd3hQzvAm4vo-19" value="" style="group" parent="1" connectable="0" vertex="1">
          <mxGeometry x="244" y="840" width="76" height="50" as="geometry" />
        </mxCell>
        <mxCell id="HgnNro6eSd3hQzvAm4vo-20" value="" style="ellipse;whiteSpace=wrap;html=1;" parent="HgnNro6eSd3hQzvAm4vo-19" vertex="1">
          <mxGeometry width="76" height="50" as="geometry" />
        </mxCell>
        <mxCell id="HgnNro6eSd3hQzvAm4vo-21" value="회원가입" style="text;strokeColor=none;fillColor=none;html=1;fontSize=14;fontStyle=1;verticalAlign=middle;align=center;" parent="HgnNro6eSd3hQzvAm4vo-19" vertex="1">
          <mxGeometry x="18" y="15" width="40" height="20" as="geometry" />
        </mxCell>
        <mxCell id="HgnNro6eSd3hQzvAm4vo-22" value="" style="group" parent="1" connectable="0" vertex="1">
          <mxGeometry x="244" y="760" width="76" height="50" as="geometry" />
        </mxCell>
        <mxCell id="HgnNro6eSd3hQzvAm4vo-23" value="" style="ellipse;whiteSpace=wrap;html=1;" parent="HgnNro6eSd3hQzvAm4vo-22" vertex="1">
          <mxGeometry width="76" height="50" as="geometry" />
        </mxCell>
        <mxCell id="HgnNro6eSd3hQzvAm4vo-24" value="로그인" style="text;strokeColor=none;fillColor=none;html=1;fontSize=14;fontStyle=1;verticalAlign=middle;align=center;" parent="HgnNro6eSd3hQzvAm4vo-22" vertex="1">
          <mxGeometry x="18" y="15" width="40" height="20" as="geometry" />
        </mxCell>
        <mxCell id="HgnNro6eSd3hQzvAm4vo-25" value="" style="group" parent="1" connectable="0" vertex="1">
          <mxGeometry x="244" y="595" width="76" height="50" as="geometry" />
        </mxCell>
        <mxCell id="HgnNro6eSd3hQzvAm4vo-26" value="" style="ellipse;whiteSpace=wrap;html=1;" parent="HgnNro6eSd3hQzvAm4vo-25" vertex="1">
          <mxGeometry width="76" height="50" as="geometry" />
        </mxCell>
        <mxCell id="HgnNro6eSd3hQzvAm4vo-27" value="PW 찾기" style="text;strokeColor=none;fillColor=none;html=1;fontSize=14;fontStyle=1;verticalAlign=middle;align=center;" parent="HgnNro6eSd3hQzvAm4vo-25" vertex="1">
          <mxGeometry x="18" y="15" width="40" height="20" as="geometry" />
        </mxCell>
        <mxCell id="HgnNro6eSd3hQzvAm4vo-28" value="" style="group" parent="1" connectable="0" vertex="1">
          <mxGeometry x="244" y="524" width="76" height="50" as="geometry" />
        </mxCell>
        <mxCell id="HgnNro6eSd3hQzvAm4vo-29" value="" style="ellipse;whiteSpace=wrap;html=1;" parent="HgnNro6eSd3hQzvAm4vo-28" vertex="1">
          <mxGeometry width="76" height="50" as="geometry" />
        </mxCell>
        <mxCell id="HgnNro6eSd3hQzvAm4vo-30" value="ID 찾기" style="text;strokeColor=none;fillColor=none;html=1;fontSize=14;fontStyle=1;verticalAlign=middle;align=center;" parent="HgnNro6eSd3hQzvAm4vo-28" vertex="1">
          <mxGeometry x="18" y="15" width="40" height="20" as="geometry" />
        </mxCell>
        <mxCell id="HgnNro6eSd3hQzvAm4vo-31" value="" style="group" parent="1" connectable="0" vertex="1">
          <mxGeometry x="244" y="670" width="76" height="50" as="geometry" />
        </mxCell>
        <mxCell id="HgnNro6eSd3hQzvAm4vo-32" value="" style="ellipse;whiteSpace=wrap;html=1;" parent="HgnNro6eSd3hQzvAm4vo-31" vertex="1">
          <mxGeometry width="76" height="50" as="geometry" />
        </mxCell>
        <mxCell id="HgnNro6eSd3hQzvAm4vo-33" value="로그아웃" style="text;strokeColor=none;fillColor=none;html=1;fontSize=14;fontStyle=1;verticalAlign=middle;align=center;" parent="HgnNro6eSd3hQzvAm4vo-31" vertex="1">
          <mxGeometry x="18" y="15" width="40" height="20" as="geometry" />
        </mxCell>
        <mxCell id="HgnNro6eSd3hQzvAm4vo-34" value="" style="group" parent="1" connectable="0" vertex="1">
          <mxGeometry x="528" y="840" width="76" height="50" as="geometry" />
        </mxCell>
        <mxCell id="HgnNro6eSd3hQzvAm4vo-35" value="" style="ellipse;whiteSpace=wrap;html=1;" parent="HgnNro6eSd3hQzvAm4vo-34" vertex="1">
          <mxGeometry width="76" height="50" as="geometry" />
        </mxCell>
        <mxCell id="HgnNro6eSd3hQzvAm4vo-36" value="휴가 신청" style="text;strokeColor=none;fillColor=none;html=1;fontSize=14;fontStyle=1;verticalAlign=middle;align=center;" parent="HgnNro6eSd3hQzvAm4vo-34" vertex="1">
          <mxGeometry x="18" y="15" width="40" height="20" as="geometry" />
        </mxCell>
        <mxCell id="HgnNro6eSd3hQzvAm4vo-37" value="" style="endArrow=none;html=1;rounded=0;entryX=0;entryY=0.5;entryDx=0;entryDy=0;exitX=0.5;exitY=0.5;exitDx=0;exitDy=0;exitPerimeter=0;" parent="1" source="HgnNro6eSd3hQzvAm4vo-1" target="HgnNro6eSd3hQzvAm4vo-23" edge="1">
          <mxGeometry width="50" height="50" relative="1" as="geometry">
            <mxPoint x="630" y="520" as="sourcePoint" />
            <mxPoint x="698" y="465" as="targetPoint" />
          </mxGeometry>
        </mxCell>
        <mxCell id="HgnNro6eSd3hQzvAm4vo-38" value="" style="endArrow=none;html=1;rounded=0;entryX=0;entryY=0.5;entryDx=0;entryDy=0;exitX=0.5;exitY=0.5;exitDx=0;exitDy=0;exitPerimeter=0;" parent="1" source="HgnNro6eSd3hQzvAm4vo-1" target="HgnNro6eSd3hQzvAm4vo-32" edge="1">
          <mxGeometry width="50" height="50" relative="1" as="geometry">
            <mxPoint x="459" y="465" as="sourcePoint" />
            <mxPoint x="510" y="440" as="targetPoint" />
          </mxGeometry>
        </mxCell>
        <mxCell id="HgnNro6eSd3hQzvAm4vo-39" value="" style="endArrow=none;html=1;rounded=0;entryX=0.5;entryY=0.5;entryDx=0;entryDy=0;entryPerimeter=0;exitX=0;exitY=0.5;exitDx=0;exitDy=0;" parent="1" source="HgnNro6eSd3hQzvAm4vo-26" target="HgnNro6eSd3hQzvAm4vo-1" edge="1">
          <mxGeometry width="50" height="50" relative="1" as="geometry">
            <mxPoint x="404" y="478" as="sourcePoint" />
            <mxPoint x="459" y="465" as="targetPoint" />
          </mxGeometry>
        </mxCell>
        <mxCell id="HgnNro6eSd3hQzvAm4vo-40" value="" style="endArrow=none;html=1;rounded=0;entryX=0;entryY=0.5;entryDx=0;entryDy=0;exitX=0.5;exitY=0.5;exitDx=0;exitDy=0;exitPerimeter=0;" parent="1" source="HgnNro6eSd3hQzvAm4vo-1" target="HgnNro6eSd3hQzvAm4vo-29" edge="1">
          <mxGeometry width="50" height="50" relative="1" as="geometry">
            <mxPoint x="403" y="560" as="sourcePoint" />
            <mxPoint x="330" y="640" as="targetPoint" />
          </mxGeometry>
        </mxCell>
        <mxCell id="HgnNro6eSd3hQzvAm4vo-41" value="" style="group" parent="1" connectable="0" vertex="1">
          <mxGeometry x="400" y="730" width="76" height="50" as="geometry" />
        </mxCell>
        <mxCell id="HgnNro6eSd3hQzvAm4vo-42" value="" style="group" parent="HgnNro6eSd3hQzvAm4vo-41" connectable="0" vertex="1">
          <mxGeometry y="-5" width="76" height="50" as="geometry" />
        </mxCell>
        <mxCell id="HgnNro6eSd3hQzvAm4vo-43" value="" style="ellipse;whiteSpace=wrap;html=1;" parent="HgnNro6eSd3hQzvAm4vo-42" vertex="1">
          <mxGeometry width="76" height="50" as="geometry" />
        </mxCell>
        <mxCell id="HgnNro6eSd3hQzvAm4vo-44" value="사용자 인증" style="text;strokeColor=none;fillColor=none;html=1;fontSize=14;fontStyle=1;verticalAlign=middle;align=center;" parent="HgnNro6eSd3hQzvAm4vo-42" vertex="1">
          <mxGeometry x="18" y="15" width="40" height="20" as="geometry" />
        </mxCell>
        <mxCell id="HgnNro6eSd3hQzvAm4vo-45" value="Include" style="endArrow=open;endSize=12;dashed=1;html=1;rounded=0;exitX=0.5;exitY=1;exitDx=0;exitDy=0;entryX=1;entryY=0.5;entryDx=0;entryDy=0;" parent="1" source="HgnNro6eSd3hQzvAm4vo-43" target="HgnNro6eSd3hQzvAm4vo-23" edge="1">
          <mxGeometry width="160" relative="1" as="geometry">
            <mxPoint x="274" y="495" as="sourcePoint" />
            <mxPoint x="434" y="495" as="targetPoint" />
          </mxGeometry>
        </mxCell>
        <mxCell id="HgnNro6eSd3hQzvAm4vo-46" value="Include" style="endArrow=open;endSize=12;dashed=1;html=1;rounded=0;exitX=0;exitY=1;exitDx=0;exitDy=0;entryX=1;entryY=0.5;entryDx=0;entryDy=0;" parent="1" source="HgnNro6eSd3hQzvAm4vo-6" target="HgnNro6eSd3hQzvAm4vo-43" edge="1">
          <mxGeometry width="160" relative="1" as="geometry">
            <mxPoint x="532" y="490" as="sourcePoint" />
            <mxPoint x="532" y="535" as="targetPoint" />
          </mxGeometry>
        </mxCell>
        <mxCell id="HgnNro6eSd3hQzvAm4vo-47" value="Include" style="endArrow=open;endSize=12;dashed=1;html=1;rounded=0;exitX=0;exitY=1;exitDx=0;exitDy=0;entryX=0.5;entryY=0;entryDx=0;entryDy=0;" parent="1" source="HgnNro6eSd3hQzvAm4vo-90" target="HgnNro6eSd3hQzvAm4vo-43" edge="1">
          <mxGeometry width="160" relative="1" as="geometry">
            <mxPoint x="678" y="468" as="sourcePoint" />
            <mxPoint x="570" y="465" as="targetPoint" />
          </mxGeometry>
        </mxCell>
        <mxCell id="HgnNro6eSd3hQzvAm4vo-48" value="Include" style="endArrow=open;endSize=12;dashed=1;html=1;rounded=0;exitX=0.5;exitY=1;exitDx=0;exitDy=0;entryX=0.5;entryY=0;entryDx=0;entryDy=0;" parent="1" source="HgnNro6eSd3hQzvAm4vo-87" target="HgnNro6eSd3hQzvAm4vo-43" edge="1">
          <mxGeometry width="160" relative="1" as="geometry">
            <mxPoint x="677" y="360" as="sourcePoint" />
            <mxPoint x="570" y="465" as="targetPoint" />
          </mxGeometry>
        </mxCell>
        <mxCell id="HgnNro6eSd3hQzvAm4vo-49" value="Include" style="endArrow=open;endSize=12;dashed=1;html=1;rounded=0;exitX=0.5;exitY=1;exitDx=0;exitDy=0;entryX=0.5;entryY=0;entryDx=0;entryDy=0;" parent="1" source="HgnNro6eSd3hQzvAm4vo-14" target="HgnNro6eSd3hQzvAm4vo-43" edge="1">
          <mxGeometry width="160" relative="1" as="geometry">
            <mxPoint x="562" y="360" as="sourcePoint" />
            <mxPoint x="532" y="440" as="targetPoint" />
          </mxGeometry>
        </mxCell>
        <mxCell id="HgnNro6eSd3hQzvAm4vo-50" value="Include" style="endArrow=open;endSize=12;dashed=1;html=1;rounded=0;exitX=0.5;exitY=1;exitDx=0;exitDy=0;entryX=0.5;entryY=0;entryDx=0;entryDy=0;" parent="1" source="HgnNro6eSd3hQzvAm4vo-8" target="HgnNro6eSd3hQzvAm4vo-43" edge="1">
          <mxGeometry width="160" relative="1" as="geometry">
            <mxPoint x="472" y="295" as="sourcePoint" />
            <mxPoint x="532" y="440" as="targetPoint" />
          </mxGeometry>
        </mxCell>
        <mxCell id="HgnNro6eSd3hQzvAm4vo-51" value="Include" style="endArrow=open;endSize=12;dashed=1;html=1;rounded=0;exitX=0.5;exitY=0;exitDx=0;exitDy=0;entryX=1;entryY=1;entryDx=0;entryDy=0;" parent="1" source="HgnNro6eSd3hQzvAm4vo-11" target="HgnNro6eSd3hQzvAm4vo-43" edge="1">
          <mxGeometry width="160" relative="1" as="geometry">
            <mxPoint x="419" y="358" as="sourcePoint" />
            <mxPoint x="532" y="440" as="targetPoint" />
          </mxGeometry>
        </mxCell>
        <mxCell id="HgnNro6eSd3hQzvAm4vo-52" value="Include" style="endArrow=open;endSize=12;dashed=1;html=1;rounded=0;exitX=0;exitY=0;exitDx=0;exitDy=0;entryX=1;entryY=1;entryDx=0;entryDy=0;" parent="1" source="HgnNro6eSd3hQzvAm4vo-35" target="HgnNro6eSd3hQzvAm4vo-43" edge="1">
          <mxGeometry width="160" relative="1" as="geometry">
            <mxPoint x="249" y="308" as="sourcePoint" />
            <mxPoint x="494" y="465" as="targetPoint" />
          </mxGeometry>
        </mxCell>
        <mxCell id="HgnNro6eSd3hQzvAm4vo-53" value="Include" style="endArrow=open;endSize=12;dashed=1;html=1;rounded=0;exitX=0;exitY=0;exitDx=0;exitDy=0;entryX=1;entryY=1;entryDx=0;entryDy=0;" parent="1" source="HgnNro6eSd3hQzvAm4vo-18" target="HgnNro6eSd3hQzvAm4vo-43" edge="1">
          <mxGeometry width="160" relative="1" as="geometry">
            <mxPoint x="260" y="370" as="sourcePoint" />
            <mxPoint x="494" y="465" as="targetPoint" />
          </mxGeometry>
        </mxCell>
        <mxCell id="HgnNro6eSd3hQzvAm4vo-54" value="" style="group" parent="1" connectable="0" vertex="1">
          <mxGeometry x="227" y="250" width="110" height="50" as="geometry" />
        </mxCell>
        <mxCell id="HgnNro6eSd3hQzvAm4vo-55" value="" style="ellipse;whiteSpace=wrap;html=1;" parent="HgnNro6eSd3hQzvAm4vo-54" vertex="1">
          <mxGeometry width="110" height="50" as="geometry" />
        </mxCell>
        <mxCell id="HgnNro6eSd3hQzvAm4vo-56" value="관리자 로그인" style="text;strokeColor=none;fillColor=none;html=1;fontSize=14;fontStyle=1;verticalAlign=middle;align=center;" parent="HgnNro6eSd3hQzvAm4vo-54" vertex="1">
          <mxGeometry x="18" y="15" width="82" height="20" as="geometry" />
        </mxCell>
        <mxCell id="HgnNro6eSd3hQzvAm4vo-57" value="" style="endArrow=none;html=1;rounded=0;entryX=0.5;entryY=0.5;entryDx=0;entryDy=0;exitX=0;exitY=0.5;exitDx=0;exitDy=0;entryPerimeter=0;" parent="1" source="HgnNro6eSd3hQzvAm4vo-55" target="HgnNro6eSd3hQzvAm4vo-2" edge="1">
          <mxGeometry width="50" height="50" relative="1" as="geometry">
            <mxPoint x="734" y="560" as="sourcePoint" />
            <mxPoint x="825" y="560" as="targetPoint" />
          </mxGeometry>
        </mxCell>
        <mxCell id="HgnNro6eSd3hQzvAm4vo-58" value="사용자 시스템" style="shape=umlFrame;whiteSpace=wrap;html=1;pointerEvents=0;width=80;height=30;" parent="1" vertex="1">
          <mxGeometry x="150" y="500" width="954" height="420" as="geometry" />
        </mxCell>
        <mxCell id="HgnNro6eSd3hQzvAm4vo-59" value="관리자 시스템" style="shape=umlFrame;whiteSpace=wrap;html=1;pointerEvents=0;width=80;height=30;" parent="1" vertex="1">
          <mxGeometry x="150" y="120" width="950" height="360" as="geometry" />
        </mxCell>
        <mxCell id="HgnNro6eSd3hQzvAm4vo-60" value="" style="group" parent="1" connectable="0" vertex="1">
          <mxGeometry x="403.75" y="285" width="76" height="50" as="geometry" />
        </mxCell>
        <mxCell id="HgnNro6eSd3hQzvAm4vo-61" value="" style="group" parent="HgnNro6eSd3hQzvAm4vo-60" connectable="0" vertex="1">
          <mxGeometry x="12.5" width="76" height="50" as="geometry" />
        </mxCell>
        <mxCell id="HgnNro6eSd3hQzvAm4vo-62" value="" style="ellipse;whiteSpace=wrap;html=1;" parent="HgnNro6eSd3hQzvAm4vo-61" vertex="1">
          <mxGeometry x="-6.25" width="76" height="50" as="geometry" />
        </mxCell>
        <mxCell id="HgnNro6eSd3hQzvAm4vo-63" value="휴가 확인" style="text;strokeColor=none;fillColor=none;html=1;fontSize=14;fontStyle=1;verticalAlign=middle;align=center;" parent="HgnNro6eSd3hQzvAm4vo-61" vertex="1">
          <mxGeometry x="11.75" y="15" width="40" height="20" as="geometry" />
        </mxCell>
        <mxCell id="HgnNro6eSd3hQzvAm4vo-64" value="" style="group" parent="1" connectable="0" vertex="1">
          <mxGeometry x="370" y="140" width="76" height="50" as="geometry" />
        </mxCell>
        <mxCell id="HgnNro6eSd3hQzvAm4vo-65" value="" style="ellipse;whiteSpace=wrap;html=1;" parent="HgnNro6eSd3hQzvAm4vo-64" vertex="1">
          <mxGeometry width="76" height="50" as="geometry" />
        </mxCell>
        <mxCell id="HgnNro6eSd3hQzvAm4vo-66" value="휴가 취소" style="text;strokeColor=none;fillColor=none;html=1;fontSize=14;fontStyle=1;verticalAlign=middle;align=center;" parent="HgnNro6eSd3hQzvAm4vo-64" vertex="1">
          <mxGeometry x="18" y="15" width="40" height="20" as="geometry" />
        </mxCell>
        <mxCell id="HgnNro6eSd3hQzvAm4vo-67" value="" style="group" parent="1" connectable="0" vertex="1">
          <mxGeometry x="410" y="210" width="76" height="50" as="geometry" />
        </mxCell>
        <mxCell id="HgnNro6eSd3hQzvAm4vo-68" value="" style="ellipse;whiteSpace=wrap;html=1;" parent="HgnNro6eSd3hQzvAm4vo-67" vertex="1">
          <mxGeometry width="76" height="50" as="geometry" />
        </mxCell>
        <mxCell id="HgnNro6eSd3hQzvAm4vo-69" value="연차 취소" style="text;strokeColor=none;fillColor=none;html=1;fontSize=14;fontStyle=1;verticalAlign=middle;align=center;" parent="HgnNro6eSd3hQzvAm4vo-67" vertex="1">
          <mxGeometry x="18" y="15" width="40" height="20" as="geometry" />
        </mxCell>
        <mxCell id="HgnNro6eSd3hQzvAm4vo-70" value="" style="group" parent="1" connectable="0" vertex="1">
          <mxGeometry x="410" y="350" width="76" height="50" as="geometry" />
        </mxCell>
        <mxCell id="HgnNro6eSd3hQzvAm4vo-71" value="" style="ellipse;whiteSpace=wrap;html=1;" parent="HgnNro6eSd3hQzvAm4vo-70" vertex="1">
          <mxGeometry width="76" height="50" as="geometry" />
        </mxCell>
        <mxCell id="HgnNro6eSd3hQzvAm4vo-72" value="연차 확인" style="text;strokeColor=none;fillColor=none;html=1;fontSize=14;fontStyle=1;verticalAlign=middle;align=center;" parent="HgnNro6eSd3hQzvAm4vo-70" vertex="1">
          <mxGeometry x="18" y="15" width="40" height="20" as="geometry" />
        </mxCell>
        <mxCell id="HgnNro6eSd3hQzvAm4vo-73" value="" style="group" parent="1" connectable="0" vertex="1">
          <mxGeometry x="373" y="420" width="130" height="45" as="geometry" />
        </mxCell>
        <mxCell id="HgnNro6eSd3hQzvAm4vo-74" value="" style="ellipse;whiteSpace=wrap;html=1;" parent="HgnNro6eSd3hQzvAm4vo-73" vertex="1">
          <mxGeometry width="130" height="45" as="geometry" />
        </mxCell>
        <mxCell id="HgnNro6eSd3hQzvAm4vo-75" value="지각자 이름 및 횟수" style="text;strokeColor=none;fillColor=none;html=1;fontSize=14;fontStyle=1;verticalAlign=middle;align=center;" parent="HgnNro6eSd3hQzvAm4vo-73" vertex="1">
          <mxGeometry x="14" y="7.5" width="102" height="30" as="geometry" />
        </mxCell>
        <mxCell id="HgnNro6eSd3hQzvAm4vo-76" value="" style="group" parent="1" connectable="0" vertex="1">
          <mxGeometry x="244" y="350" width="76" height="50" as="geometry" />
        </mxCell>
        <mxCell id="HgnNro6eSd3hQzvAm4vo-77" value="" style="ellipse;whiteSpace=wrap;html=1;" parent="HgnNro6eSd3hQzvAm4vo-76" vertex="1">
          <mxGeometry width="76" height="50" as="geometry" />
        </mxCell>
        <mxCell id="HgnNro6eSd3hQzvAm4vo-78" value="로그아웃" style="text;strokeColor=none;fillColor=none;html=1;fontSize=14;fontStyle=1;verticalAlign=middle;align=center;" parent="HgnNro6eSd3hQzvAm4vo-76" vertex="1">
          <mxGeometry x="18" y="15" width="40" height="20" as="geometry" />
        </mxCell>
        <mxCell id="HgnNro6eSd3hQzvAm4vo-79" value="Include" style="endArrow=open;endSize=12;dashed=1;html=1;rounded=0;entryX=1;entryY=0.5;entryDx=0;entryDy=0;exitX=0;exitY=0.5;exitDx=0;exitDy=0;" parent="1" source="HgnNro6eSd3hQzvAm4vo-62" target="HgnNro6eSd3hQzvAm4vo-55" edge="1">
          <mxGeometry width="160" relative="1" as="geometry">
            <mxPoint x="448" y="620" as="sourcePoint" />
            <mxPoint x="448" y="735" as="targetPoint" />
          </mxGeometry>
        </mxCell>
        <mxCell id="HgnNro6eSd3hQzvAm4vo-80" value="Include" style="endArrow=open;endSize=12;dashed=1;html=1;rounded=0;entryX=1;entryY=0.5;entryDx=0;entryDy=0;exitX=0;exitY=0.5;exitDx=0;exitDy=0;" parent="1" source="HgnNro6eSd3hQzvAm4vo-71" target="HgnNro6eSd3hQzvAm4vo-55" edge="1">
          <mxGeometry width="160" relative="1" as="geometry">
            <mxPoint x="420" y="320" as="sourcePoint" />
            <mxPoint x="347" y="285" as="targetPoint" />
          </mxGeometry>
        </mxCell>
        <mxCell id="HgnNro6eSd3hQzvAm4vo-81" value="Include" style="endArrow=open;endSize=12;dashed=1;html=1;rounded=0;entryX=1;entryY=0.5;entryDx=0;entryDy=0;exitX=0;exitY=0.5;exitDx=0;exitDy=0;" parent="1" source="HgnNro6eSd3hQzvAm4vo-74" target="HgnNro6eSd3hQzvAm4vo-55" edge="1">
          <mxGeometry width="160" relative="1" as="geometry">
            <mxPoint x="420" y="385" as="sourcePoint" />
            <mxPoint x="347" y="285" as="targetPoint" />
          </mxGeometry>
        </mxCell>
        <mxCell id="HgnNro6eSd3hQzvAm4vo-82" value="Include" style="endArrow=open;endSize=12;dashed=1;html=1;rounded=0;exitX=0.5;exitY=1;exitDx=0;exitDy=0;entryX=0.5;entryY=0;entryDx=0;entryDy=0;" parent="1" source="HgnNro6eSd3hQzvAm4vo-32" target="HgnNro6eSd3hQzvAm4vo-23" edge="1">
          <mxGeometry width="160" relative="1" as="geometry">
            <mxPoint x="448" y="785" as="sourcePoint" />
            <mxPoint x="330" y="795" as="targetPoint" />
          </mxGeometry>
        </mxCell>
        <mxCell id="HgnNro6eSd3hQzvAm4vo-83" value="Include" style="endArrow=open;endSize=12;dashed=1;html=1;rounded=0;exitX=0.5;exitY=1;exitDx=0;exitDy=0;entryX=0.5;entryY=0;entryDx=0;entryDy=0;" parent="1" source="HgnNro6eSd3hQzvAm4vo-55" target="HgnNro6eSd3hQzvAm4vo-77" edge="1">
          <mxGeometry width="160" relative="1" as="geometry">
            <mxPoint x="292" y="730" as="sourcePoint" />
            <mxPoint x="292" y="770" as="targetPoint" />
          </mxGeometry>
        </mxCell>
        <mxCell id="HgnNro6eSd3hQzvAm4vo-84" value="Include" style="endArrow=open;endSize=12;dashed=1;html=1;rounded=0;exitX=0;exitY=0.5;exitDx=0;exitDy=0;entryX=1;entryY=0.5;entryDx=0;entryDy=0;" parent="1" source="HgnNro6eSd3hQzvAm4vo-68" target="HgnNro6eSd3hQzvAm4vo-55" edge="1">
          <mxGeometry width="160" relative="1" as="geometry">
            <mxPoint x="420" y="320" as="sourcePoint" />
            <mxPoint x="347" y="285" as="targetPoint" />
          </mxGeometry>
        </mxCell>
        <mxCell id="HgnNro6eSd3hQzvAm4vo-85" value="Include" style="endArrow=open;endSize=12;dashed=1;html=1;rounded=0;exitX=0;exitY=1;exitDx=0;exitDy=0;entryX=1;entryY=0.5;entryDx=0;entryDy=0;" parent="1" source="HgnNro6eSd3hQzvAm4vo-65" target="HgnNro6eSd3hQzvAm4vo-55" edge="1">
          <mxGeometry width="160" relative="1" as="geometry">
            <mxPoint x="420" y="245" as="sourcePoint" />
            <mxPoint x="347" y="285" as="targetPoint" />
          </mxGeometry>
        </mxCell>
        <mxCell id="HgnNro6eSd3hQzvAm4vo-86" value="" style="group" parent="1" connectable="0" vertex="1">
          <mxGeometry x="710" y="560" width="76" height="50" as="geometry" />
        </mxCell>
        <mxCell id="HgnNro6eSd3hQzvAm4vo-87" value="" style="ellipse;whiteSpace=wrap;html=1;" parent="HgnNro6eSd3hQzvAm4vo-86" vertex="1">
          <mxGeometry width="76" height="50" as="geometry" />
        </mxCell>
        <mxCell id="HgnNro6eSd3hQzvAm4vo-88" value="연차 확인" style="text;strokeColor=none;fillColor=none;html=1;fontSize=14;fontStyle=1;verticalAlign=middle;align=center;" parent="HgnNro6eSd3hQzvAm4vo-86" vertex="1">
          <mxGeometry x="18" y="15" width="40" height="20" as="geometry" />
        </mxCell>
        <mxCell id="HgnNro6eSd3hQzvAm4vo-89" value="" style="group" parent="1" connectable="0" vertex="1">
          <mxGeometry x="620" y="562.5" width="76" height="50" as="geometry" />
        </mxCell>
        <mxCell id="HgnNro6eSd3hQzvAm4vo-90" value="" style="ellipse;whiteSpace=wrap;html=1;" parent="HgnNro6eSd3hQzvAm4vo-89" vertex="1">
          <mxGeometry width="76" height="50" as="geometry" />
        </mxCell>
        <mxCell id="HgnNro6eSd3hQzvAm4vo-91" value="휴가 확인" style="text;strokeColor=none;fillColor=none;html=1;fontSize=14;fontStyle=1;verticalAlign=middle;align=center;" parent="HgnNro6eSd3hQzvAm4vo-89" vertex="1">
          <mxGeometry x="18" y="15" width="40" height="20" as="geometry" />
        </mxCell>
      </root>
    </mxGraphModel>
  </diagram>
</mxfile>
